PathFileType	4	(X/Y/Z)	/Users/itak/Documents/Research/Walk-IL/dataset/trc/00122_00007.trc
DataRate	CameraRate	NumFrames	NumMarkers	Units	OrigDataRate	OrigDataStartFrame	OrigNumFrames
100.000000	100.000000	4	53	mm	100.000000	0	727
Frame#	Time	RPSI			LPSI			L3			STRN			T10			C7			CLAV			RBAK			LBAK			LSHO			LUPA			LAEL			LAOL			LWTS			LWPS			LFRA			LIFD			LHPS			LHTS			RSHO			RUPA			RAEL			RAOL			RWTS			RWPS			RFRA			RIFD			RHTS			RHPS			RBHD			LFHD			RFHD			LBHD			LHIP			RHIP			RASI			LASI			LKNE			LTHI			LANK			LTIP			LTOE			LMT1			LMT5			LHEE			RKNE			RTHI			RANK			RTIP			RTOE			RMT1			RMT5			RHEE			
		X1	Y1	Z1	X2	Y2	Z2	X3	Y3	Z3	X4	Y4	Z4	X5	Y5	Z5	X6	Y6	Z6	X7	Y7	Z7	X8	Y8	Z8	X9	Y9	Z9	X10	Y10	Z10	X11	Y11	Z11	X12	Y12	Z12	X13	Y13	Z13	X14	Y14	Z14	X15	Y15	Z15	X16	Y16	Z16	X17	Y17	Z17	X18	Y18	Z18	X19	Y19	Z19	X20	Y20	Z20	X21	Y21	Z21	X22	Y22	Z22	X23	Y23	Z23	X24	Y24	Z24	X25	Y25	Z25	X26	Y26	Z26	X27	Y27	Z27	X28	Y28	Z28	X29	Y29	Z29	X30	Y30	Z30	X31	Y31	Z31	X32	Y32	Z32	X33	Y33	Z33	X34	Y34	Z34	X35	Y35	Z35	X36	Y36	Z36	X37	Y37	Z37	X38	Y38	Z38	X39	Y39	Z39	X40	Y40	Z40	X41	Y41	Z41	X42	Y42	Z42	X43	Y43	Z43	X44	Y44	Z44	X45	Y45	Z45	X46	Y46	Z46	X47	Y47	Z47	X48	Y48	Z48	X49	Y49	Z49	X50	Y50	Z50	X51	Y51	Z51	X52	Y52	Z52	X53	Y53	Z53	

1	0	-25.02913093566895	1132.525024414062	1283.509643554688	-27.48865509033203	1133.802368164062	1149.3115234375	-31.81093215942383	1163.88037109375	1214.519409179688	178.7248229980469	1366.32763671875	1211.43798828125	-75.36735534667969	1311.068603515625	1216.101928710938	-51.19840240478516	1605.098266601562	1204.665161132812	136.6800384521484	1499.505249023438	1209.068359375	-95.72352600097656	1418.834594726562	1292.054077148438	-58.75942611694336	1584.1533203125	1103.046142578125	27.18199920654297	1571.977172851562	1032.887573242188	7.840453147888184	1439.937133789062	962.4495239257812	26.63007926940918	1220.119506835938	943.6261596679688	-42.01486587524414	1208.09521484375	997.7890014648438	130.6448669433594	966.1148681640625	997.0648803710938	51.29312515258789	937.8539428710938	966.4756469726562	46.04366302490234	1104.320190429688	942.629638671875	146.8397674560547	774.5969848632812	1025.335571289062	81.94068145751953	863.5792236328125	969.2559814453125	148.4959259033203	876.7752075195312	989.06298828125	9.268067359924316	1585.936889648438	1385.1171875	-4.532349109649658	1512.370239257812	1448.133544921875	-10.85571193695068	1217.08837890625	1464.509155273438	-22.55075836181641	1216.768676757812	1369.328491210938	136.8134918212891	976.8388061523438	1434.801025390625	64.09309387207031	957.1373291015625	1469.736083984375	15.13373947143555	1143.738647460938	1476.7255859375	164.0309143066406	784.5758666992188	1407.784057617188	168.8209075927734	868.9127807617188	1435.183959960938	105.4833450317383	859.5239868164062	1470.054321289062	10.09043216705322	1783.182373046875	1291.137573242188	131.4177093505859	1844.2626953125	1115.613647460938	166.4852905273438	1853.21484375	1241.480590820312	-34.1430778503418	1778.076538085938	1163.410400390625	58.96669387817383	1044.102294921875	1039.765991210938	103.9463195800781	1034.377197265625	1396.211059570312	184.2109069824219	1107.2294921875	1342.986206054688	170.2455902099609	1109.544799804688	1077.850219726562	74.88744354248047	541.9467163085938	1070.537231445312	55.5739631652832	688.700927734375	1042.003784179688	-41.15340805053711	42.90123748779297	1082.144165039062	-28.3947696685791	296.9923400878906	1046.570068359375	186.9026947021484	39.9042854309082	1149.950439453125	104.3353500366211	43.56356048583984	1180.599731445312	84.77339935302734	40.84387969970703	1064.936157226562	-113.9627380371094	43.89799118041992	1140.077270507812	67.12659454345703	543.359619140625	1358.466430664062	112.5877151489258	821.4755249023438	1385.888916015625	-42.04410552978516	35.14483642578125	1334.649658203125	36.59156036376953	412.1737670898438	1368.1484375	189.6351470947266	48.41257858276367	1276.169677734375	127.375862121582	41.96167373657227	1235.934326171875	92.34862518310547	42.81357192993164	1355.227905273438	-101.9550552368164	36.77168273925781	1286.001586914062	
2	0.01	-25.04097747802734	1132.5283203125	1283.4365234375	-27.48436546325684	1133.802124023438	1149.238403320312	-31.79177284240723	1163.87451171875	1214.462524414062	178.7232971191406	1366.320068359375	1211.356201171875	-75.38209533691406	1311.079345703125	1216.01513671875	-51.20170974731445	1605.083740234375	1204.558471679688	136.6617584228516	1499.500122070312	1208.97216796875	-95.70123291015625	1418.830322265625	1291.971557617188	-58.7600212097168	1584.15673828125	1102.958984375	27.17248725891113	1571.970458984375	1032.796264648438	7.795104026794434	1439.91796875	962.3751220703125	26.54128646850586	1220.094848632812	943.5694580078125	-42.07568359375	1208.098999023438	997.7498779296875	130.3850402832031	966.0313720703125	997.0159301757812	50.94577407836914	937.7921752929688	966.4199829101562	45.8991813659668	1104.291259765625	942.5755615234375	146.4311370849609	774.4899291992188	1025.189697265625	81.64459228515625	863.5078735351562	969.2032470703125	148.1802825927734	876.6392211914062	988.9659423828125	9.24560546875	1585.949096679688	1385.024658203125	-4.563539981842041	1512.3818359375	1448.0283203125	-10.93135547637939	1217.105346679688	1464.467651367188	-22.61141395568848	1216.784790039062	1369.313110351562	136.6107788085938	976.7716674804688	1434.880493164062	63.8371467590332	957.1270141601562	1469.852783203125	15.03892517089844	1143.767944335938	1476.757568359375	163.7158355712891	784.4892578125	1407.931762695312	168.5631713867188	868.8308715820312	1435.341552734375	105.2103729248047	859.501708984375	1470.1572265625	9.922258377075195	1783.144287109375	1291.004760742188	131.3484344482422	1844.308837890625	1115.590454101562	166.3424072265625	1853.269653320312	1241.47998046875	-34.17315673828125	1778.06005859375	1163.332763671875	58.93366241455078	1044.091552734375	1039.703735351562	103.9397125244141	1034.386596679688	1396.1474609375	184.1844482421875	1107.231201171875	1342.923461914062	170.2253112792969	1109.527709960938	1077.79345703125	74.85910034179688	541.9352416992188	1070.503173828125	55.54279708862305	688.6913452148438	1041.95166015625	-41.14743041992188	42.89820861816406	1082.147705078125	-28.40670394897461	296.9791870117188	1046.554077148438	186.8972930908203	39.90674209594727	1149.950317382812	104.3367156982422	43.55884552001953	1180.60546875	84.77510833740234	40.84289169311523	1064.937866210938	-113.9716796875	43.88079833984375	1140.078857421875	67.14418792724609	543.3709106445312	1358.417236328125	112.7635192871094	821.47998046875	1385.769897460938	-42.06803512573242	35.1596794128418	1334.660888671875	36.60498428344727	412.1800231933594	1368.105834960938	189.6356048583984	48.41559600830078	1276.168579101562	127.3766555786133	41.94845581054688	1235.921630859375	92.34513854980469	42.81893157958984	1355.214599609375	-101.9551391601562	36.77157974243164	1286.001220703125	
3	0.02	-25.05881690979004	1132.531616210938	1283.344848632812	-27.47803497314453	1133.800903320312	1149.142211914062	-31.77103614807129	1163.867919921875	1214.394409179688	178.7213745117188	1366.312255859375	1211.255249023438	-75.39717102050781	1311.096069335938	1215.905517578125	-51.2029914855957	1605.06640625	1204.421997070312	136.6365203857422	1499.495239257812	1208.85302734375	-95.67876434326172	1418.825561523438	1291.864501953125	-58.75790405273438	1584.1572265625	1102.846435546875	27.16567230224609	1571.961669921875	1032.677124023438	7.73783540725708	1439.8974609375	962.2822265625	26.43277168273926	1220.065551757812	943.4946899414062	-42.15564346313477	1208.105590820312	997.693115234375	130.0746612548828	965.9326171875	996.946044921875	50.53410720825195	937.7219848632812	966.345947265625	45.72105407714844	1104.257446289062	942.5026245117188	145.9190673828125	774.3606567382812	1025.00634765625	81.27483367919922	863.4232788085938	969.1279296875	147.7975921630859	876.4786987304688	988.8423461914062	9.216571807861328	1585.963012695312	1384.904296875	-4.604855060577393	1512.397827148438	1447.896362304688	-11.03009223937988	1217.127685546875	1464.414306640625	-22.68790435791016	1216.802001953125	1369.294555664062	136.3543243408203	976.6900024414062	1434.981323242188	63.52719497680664	957.1168212890625	1469.9912109375	14.9255895614624	1143.8046875	1476.8037109375	163.3175811767578	784.3810424804688	1408.126586914062	168.2469024658203	868.7284545898438	1435.544677734375	104.8658142089844	859.4766845703125	1470.290893554688	9.723864555358887	1783.098876953125	1290.8427734375	131.2679748535156	1844.367309570312	1115.56005859375	166.1706237792969	1853.334838867188	1241.47998046875	-34.21317672729492	1778.039428710938	1163.23291015625	58.89510726928711	1044.079711914062	1039.622436523438	103.9244918823242	1034.39794921875	1396.06884765625	184.1460876464844	1107.23388671875	1342.843505859375	170.1983489990234	1109.505493164062	1077.721435546875	74.83008575439453	541.9214477539062	1070.463623046875	55.51002502441406	688.6796875	1041.890380859375	-41.14240646362305	42.89546585083008	1082.150512695312	-28.4174861907959	296.9629516601562	1046.532958984375	186.8915100097656	39.90898132324219	1149.951293945312	104.3380584716797	43.55595016479492	1180.611328125	84.77677154541016	40.84224319458008	1064.939331054688	-113.9798126220703	43.86128997802734	1140.077758789062	67.167724609375	543.3836669921875	1358.356689453125	113.0318908691406	821.4862060546875	1385.605834960938	-42.09722518920898	35.17771148681641	1334.681518554688	36.62654113769531	412.1878967285156	1368.052734375	189.6370697021484	48.41781234741211	1276.165649414062	127.376091003418	41.93264007568359	1235.906372070312	92.34295654296875	42.82545852661133	1355.19873046875	-101.9546585083008	36.77138519287109	1286.001098632812	
4	0.03	-25.0821704864502	1132.534057617188	1283.238403320312	-27.47028350830078	1133.7978515625	1149.02587890625	-31.75119209289551	1163.860961914062	1214.320068359375	178.7182464599609	1366.304931640625	1211.139404296875	-75.41077423095703	1311.119750976562	1215.776733398438	-51.20112228393555	1605.047729492188	1204.260375976562	136.6043243408203	1499.491455078125	1208.716796875	-95.66056060791016	1418.820922851562	1291.734252929688	-58.75228118896484	1584.15380859375	1102.711303710938	27.16467666625977	1571.951293945312	1032.533569335938	7.671207904815674	1439.878295898438	962.1737060546875	26.31209182739258	1220.033935546875	943.4026489257812	-42.25332641601562	1208.1162109375	997.6168212890625	129.7344665527344	965.8255615234375	996.8545532226562	50.09014129638672	937.650634765625	966.2535400390625	45.51901626586914	1104.221435546875	942.411376953125	145.3329315185547	774.2171020507812	1024.79296875	80.84932708740234	863.3319702148438	969.0274047851562	147.3726806640625	876.306884765625	988.695556640625	9.180995941162109	1585.977416992188	1384.759399414062	-4.65539026260376	1512.418334960938	1447.7431640625	-11.15035820007324	1217.15478515625	1464.350341796875	-22.77815818786621	1216.81982421875	1369.273315429688	136.0543060302734	976.5991821289062	1435.099731445312	63.18293380737305	957.1093139648438	1470.141967773438	14.79805850982666	1143.848022460938	1476.861206054688	162.8531951904297	784.2573852539062	1408.36376953125	167.8875122070312	868.6110229492188	1435.784545898438	104.4613418579102	859.4514770507812	1470.452880859375	9.510225296020508	1783.049194335938	1290.6611328125	131.1825866699219	1844.436157226562	1115.523193359375	165.9801025390625	1853.406616210938	1241.48046875	-34.26218795776367	1778.015502929688	1163.113037109375	58.8519172668457	1044.067993164062	1039.524658203125	103.8983764648438	1034.410522460938	1395.978637695312	184.0942077636719	1107.237548828125	1342.74951171875	170.1657867431641	1109.478759765625	1077.635864257812	74.80394744873047	541.9058837890625	1070.421508789062	55.47954177856445	688.6666870117188	1041.824462890625	-41.13901138305664	42.89313888549805	1082.151977539062	-28.42509269714355	296.9444274902344	1046.507202148438	186.8860473632812	39.91065979003906	1149.953125	104.3391723632812	43.55567932128906	1180.616821289062	84.77814483642578	40.84210586547852	1064.940551757812	-113.9860458374023	43.84122085571289	1140.073120117188	67.19766235351562	543.397216796875	1358.287841796875	113.3993148803711	821.4938354492188	1385.398559570312	-42.12899017333984	35.19748306274414	1334.709716796875	36.65665435791016	412.1970520019531	1367.990844726562	189.6398315429688	48.41890716552734	1276.160888671875	127.3738632202148	41.91641235351562	1235.890014648438	92.34272003173828	42.83280563354492	1355.181396484375	-101.9534530639648	36.77129745483398	1286.001098632812	
